<svg width="71" height="115" viewBox="0 0 71 115" fill="none" xmlns="http://www.w3.org/2000/svg">
<path d="M21.599 37.4361V4.79148e-06H20.033L10.8266 17.1504L4.70485 5.74852L3.32865 6.50863L10.8266 20.4283L20.0803 3.13558V37.4361H21.599L21.599 37.4361ZM1.57274 37.4361V3.23056L1.95245 3.9433L3.32865 3.23056L1.57274 4.79148e-06H0.0541992V37.4361H1.57274ZM58.2345 4.51328C58.2345 4.7034 58.796 6.51648 59.9192 9.95285C61.0423 13.3894 62.2682 17.1504 63.597 21.2359C64.9257 25.3217 66.7133 30.7216 68.9595 37.4361H71L58.4244 -1.14441e-05H58.0447L45.564 37.4361H47.5097L58.2345 4.51327L58.2345 4.51328Z" fill="#C2000A"/>
<path d="M11.6141 76.5944C13.8034 75.3615 15.4796 73.6239 16.6426 71.3808C17.8055 69.1379 18.3869 66.5952 18.3869 63.7533V63.0341C18.3869 58.8222 17.1298 55.3292 14.6157 52.5559C12.1017 49.7821 8.51863 48.3954 3.86686 48.3954H0.326538V64.6777C0.907975 64.7121 1.48941 64.7291 2.07098 64.7291V50.039H3.76399C7.97156 50.039 11.1524 51.2632 13.3076 53.7114C15.4624 56.1597 16.5397 59.3017 16.5397 63.1367V63.7019C16.5397 67.5029 15.4624 70.619 13.3076 73.0504C11.1524 75.4814 7.97156 76.697 3.76399 76.697H2.07098C1.52391 76.697 0.942097 76.697 0.326538 76.697V78.3406C1.35255 78.375 2.03686 78.3923 2.37882 78.3923H3.86686C6.22688 78.3923 8.29634 78.0327 10.0752 77.3135L16.4371 88.8704H18.4895L11.6141 76.5944L11.6141 76.5944ZM56.1493 65.8078L60.7156 70.0709C62.1525 71.4067 63.281 72.8361 64.1019 74.3599C64.9228 75.8837 65.3333 77.4162 65.3333 78.9572V79.6251C65.3678 80.7207 65.2308 81.6964 64.9228 82.5528H66.8213C67.0949 81.6279 67.2146 80.6694 67.1806 79.6763V78.9572C67.1806 77.1079 66.7102 75.3443 65.7696 73.6666C64.8289 71.9888 63.5205 70.3452 61.8445 68.7356L57.432 64.5751C56.0296 63.2397 54.8752 61.9897 53.9686 60.8256C53.0624 59.6613 52.609 58.2058 52.609 56.4594V56.1511C52.609 54.3363 53.1137 52.8724 54.1228 51.7595C55.1316 50.6467 56.5425 50.0904 58.3554 50.0904C59.6552 50.0904 60.7156 50.287 61.5365 50.6811C62.3576 51.0748 63.1957 51.6655 64.0506 52.4529L65.2308 51.1174C64.2729 50.2272 63.2896 49.5596 62.2805 49.1142C61.2716 48.6692 59.9632 48.4466 58.3554 48.4466C56.2691 48.4466 54.4989 49.1228 53.0452 50.4755C51.5915 51.828 50.8645 53.7028 50.8645 56.0998V56.5107C50.8645 58.4627 51.352 60.1321 52.3268 61.5188C53.3018 62.9055 54.5759 64.3353 56.1493 65.8078L56.1493 65.8078ZM66.103 84.5044H63.9994C62.8024 86.251 60.8867 87.141 58.2529 87.1756C57.3635 87.1756 56.5597 87.0728 55.8413 86.8672V88.6652C56.5597 88.802 57.3635 88.8704 58.2529 88.8704C60.1002 88.8704 61.6903 88.4937 63.0247 87.7404C64.3586 86.987 65.3846 85.9083 66.103 84.5044Z" fill="#C2000A"/>
<path d="M3.65151 114.734L3.19424 113.536H0.833979L0.376705 114.734H0L1.829 110.022H2.20583L4.02786 114.734H3.65153H3.65151ZM0.968213 113.2H3.0662L2.01727 110.46L0.968213 113.2ZM11.2766 114.734L10.1467 112.802H8.66067V114.734H8.30426V110.022H10.16C10.5413 110.022 10.8685 110.159 11.142 110.433C11.4156 110.707 11.5522 111.034 11.5522 111.416C11.5522 111.734 11.4548 112.017 11.2597 112.264C11.0646 112.511 10.8169 112.675 10.5166 112.755L11.6867 114.734H11.2766ZM8.66069 110.359V112.466H10.1601C10.4471 112.466 10.6913 112.364 10.8933 112.159C11.0949 111.956 11.1957 111.707 11.1957 111.416C11.1957 111.124 11.0949 110.875 10.8933 110.668C10.6913 110.462 10.4471 110.359 10.1601 110.359H8.66069ZM18.1956 114.809C17.4871 114.809 16.9023 114.574 16.4406 114.105C15.9788 113.636 15.7479 113.061 15.7479 112.378C15.7479 111.696 15.9788 111.121 16.4406 110.652C16.9023 110.183 17.4871 109.948 18.1956 109.948C18.6258 109.948 19.0204 110.05 19.3788 110.254C19.7377 110.459 20.0154 110.733 20.2129 111.079L19.8967 111.261C19.7398 110.969 19.5089 110.735 19.2041 110.557C18.8992 110.38 18.5631 110.291 18.1956 110.291C17.5859 110.291 17.085 110.492 16.6924 110.894C16.3002 111.296 16.1041 111.791 16.1041 112.378C16.1041 112.966 16.3002 113.461 16.6924 113.863C17.085 114.264 17.5859 114.465 18.1956 114.465C18.5631 114.465 18.9016 114.376 19.2109 114.196C19.5203 114.016 19.7531 113.776 19.91 113.476L20.2262 113.657C20.0336 114.007 19.7556 114.287 19.3922 114.495C19.0292 114.704 18.6302 114.809 18.1956 114.809V114.809ZM27.7508 110.022H28.107V114.734H27.7508V112.479H25.0139V114.734H24.6575V110.022H25.0139V112.143H27.7508V110.022ZM32.8677 110.022H33.2241V114.734H32.8677V110.022ZM40.8761 110.022V110.359H39.3969V114.734H39.0337V110.359H37.5545V110.022H40.8761H40.8761ZM45.5629 114.398H47.9166V114.734H45.2064V110.022H47.8829V110.359H45.5629V112.19H47.7146V112.527H45.5629V114.398ZM54.5263 114.809C53.8179 114.809 53.233 114.574 52.7713 114.105C52.3096 113.636 52.0787 113.061 52.0787 112.378C52.0787 111.696 52.3096 111.121 52.7713 110.652C53.233 110.183 53.8179 109.948 54.5263 109.948C54.9564 109.948 55.351 110.05 55.7095 110.254C56.0684 110.459 56.346 110.733 56.5435 111.079L56.2273 111.261C56.0704 110.969 55.8397 110.735 55.5348 110.557C55.23 110.38 54.8938 110.291 54.5263 110.291C53.9166 110.291 53.4158 110.492 53.0231 110.894C52.631 111.296 52.4348 111.79 52.4348 112.378C52.4348 112.966 52.631 113.461 53.0231 113.863C53.4158 114.264 53.9166 114.465 54.5263 114.465C54.8938 114.465 55.2323 114.376 55.5417 114.196C55.851 114.016 56.0839 113.776 56.2408 113.476L56.557 113.657C56.3643 114.007 56.0864 114.287 55.723 114.495C55.36 114.704 54.9608 114.808 54.5263 114.808V114.809ZM63.8122 110.022V110.359H62.333V114.734H61.9698V110.359H60.4906V110.022H63.8122H63.8122ZM69.4472 114.809C69.0123 114.809 68.6434 114.709 68.3411 114.509C68.0383 114.309 67.8332 114.039 67.7255 113.698L68.0352 113.516C68.1202 113.808 68.2825 114.039 68.5224 114.209C68.7625 114.38 69.0704 114.465 69.4472 114.465C69.8281 114.465 70.1205 114.378 70.3246 114.203C70.5286 114.028 70.6305 113.801 70.6305 113.523C70.6305 113.262 70.5321 113.063 70.3348 112.924C70.1375 112.785 69.8305 112.647 69.4136 112.513C69.2611 112.464 69.1503 112.427 69.0808 112.402C69.0113 112.377 68.9116 112.339 68.7814 112.288C68.6514 112.236 68.555 112.19 68.4921 112.149C68.4295 112.109 68.3545 112.055 68.2671 111.988C68.1797 111.921 68.1157 111.852 68.0754 111.783C68.0352 111.713 67.9991 111.63 67.9677 111.534C67.9365 111.437 67.9206 111.33 67.9206 111.214C67.9206 110.832 68.0561 110.526 68.3276 110.295C68.5987 110.064 68.9383 109.948 69.3464 109.948C69.7139 109.948 70.0276 110.04 70.2877 110.224C70.5475 110.408 70.738 110.646 70.8592 110.938L70.5567 111.106C70.3324 110.563 69.9288 110.292 69.3464 110.292C69.0234 110.292 68.7656 110.377 68.5729 110.547C68.3803 110.718 68.2839 110.936 68.2839 111.2C68.2839 111.456 68.3734 111.647 68.5526 111.773C68.7322 111.898 69.0257 112.028 69.4338 112.163C69.6936 112.248 69.8966 112.321 70.042 112.382C70.188 112.442 70.3449 112.525 70.5128 112.631C70.681 112.736 70.8032 112.862 70.8795 113.008C70.9556 113.154 70.9937 113.323 70.9937 113.516C70.9937 113.906 70.8524 114.22 70.5702 114.455C70.2877 114.691 69.9134 114.809 69.4471 114.809L69.4472 114.809Z" fill="#727376"/>
</svg>
